HIERARCHY
ROOT pelvis
{
  OFFSET 0 100 0
  CHANNELS 6 Xposition Yposition Zposition Zrotation Xrotation Yrotation
  JOINT pelvis_right_femur
  {
    OFFSET -10.78128 -3.44521 -0.5502486
    CHANNELS 3 Zrotation Xrotation Yrotation
    JOINT right_femur_tibia
    {
      OFFSET -0.8047443 -44.0398 -0.1307829
      CHANNELS 3 Zrotation Xrotation Yrotation
      JOINT right_tibia_foot
      {
        OFFSET 3.006224 -47.83518 -5
        CHANNELS 3 Zrotation Xrotation Yrotation
        End Site
        {
          OFFSET 0 -5 15
        }
      }
    }
  }
  JOINT pelvis_left_femur
  {
    OFFSET 10.78128 -3.44521 -0.5502486
    CHANNELS 3 Zrotation Xrotation Yrotation
    JOINT left_femur_tibia
    {
      OFFSET 0.8047443 -44.0398 -0.1307829
      CHANNELS 3 Zrotation Xrotation Yrotation
      JOINT left_tibia_foot
      {
        OFFSET -4.370144 -48.10324 -4.275266
        CHANNELS 3 Zrotation Xrotation Yrotation
        End Site
        {
          OFFSET 0 -5 15
        }
      }
    }
  }
  JOINT pelvis_spine1
  {
    OFFSET 0 6.468898 -3.129235
    CHANNELS 3 Zrotation Xrotation Yrotation
    JOINT spine1
    {
      OFFSET 0 23.15396 4.99043
      CHANNELS 3 Zrotation Xrotation Yrotation
      JOINT spine2
      {
        OFFSET 0 20.79997 -5.064912
        CHANNELS 3 Zrotation Xrotation Yrotation
        JOINT neck
        {
          OFFSET 0 14.38658 9.616178
          CHANNELS 3 Zrotation Xrotation Yrotation
          End Site
          {
            OFFSET 0 20 0
          }
        }
      }
      JOINT right_manubrium
      {
        OFFSET -5.722621 16.35077 3.967754
        CHANNELS 3 Zrotation Xrotation Yrotation
        JOINT right_clavicle
        {
          OFFSET -13.16364 1.694482 -4.693211
          CHANNELS 3 Zrotation Xrotation Yrotation
          JOINT right_humerus
          {
            OFFSET -28.5034 -0.3100689 -2.792744
            CHANNELS 3 Zrotation Xrotation Yrotation
            JOINT right_radius
            {
              OFFSET -25.15693 0.02248979 -1.271978
              CHANNELS 3 Zrotation Xrotation Yrotation
              End Site
              {
                OFFSET -15 0 0
              }
            }
          }
        }
      }
      JOINT left_manubrium
      {
        OFFSET 5.722621 16.35077 3.967754
        CHANNELS 3 Zrotation Xrotation Yrotation
        JOINT left_clavicle
        {
          OFFSET 13.16364 1.694482 -4.693211
          CHANNELS 3 Zrotation Xrotation Yrotation
          JOINT left_humerus
          {
            OFFSET 29.39168 -1.063119 -2.237045
            CHANNELS 3 Zrotation Xrotation Yrotation
            JOINT left_radius
            {
              OFFSET 24.59957 -0.9528479 0.9047498
              CHANNELS 3 Zrotation Xrotation Yrotation
              End Site
              {
                OFFSET 15 -0 -0
              }
            }
          }
        }
      }
    }
  }
}
MOTION
Frames: 17
Frame Time: 0.0416666666667
0 103.5113 0 1.103123 -2.35308 -0.1625225 2.689066 -14.33265 8.397218 -0 37.32846 -0 -6.074829 -14.3455 -4.601055 -6.564168 11.99247 -24.60454 -0 7.035374 -0 0.05839176 -20.83464 23.76421 -3.777726 -3.139399 3.915169 2.139286 8.852661 -8.010648 0.7868506 22.96331 8.059761 4.559709 -22.8552 8.392417 7.163363 -19.5883 11.55868 85.95016 36.18443 -22.0349 -0 0 16.54992 -9.691598 9.528709 5.374067 4.246347 -19.40968 -3.79222 -101.1094 40.44909 29.47423 0 0 -19.2622 -12.02571 16.42694 28.23055
0.2189888 103.4678 1.066727 0.9719734 -2.143566 -0.3626134 3.104117 -15.3388 8.825443 -0 37.6624 -0 -5.941237 -14.5695 -4.62082 -6.52945 12.16063 -25.00481 -0 6.973645 -0 0.4328263 -21.02468 24.16207 -3.72811 -2.927991 3.942935 2.129685 8.64679 -7.849273 0.9616816 22.87956 8.004058 4.551563 -22.99205 8.605109 7.235256 -19.46338 11.47852 85.6973 36.40175 -21.64349 -0 0 16.70416 -8.847221 9.308791 4.949733 4.391661 -19.1537 -3.515775 -101.0699 40.30961 29.32347 0 0 -19.10256 -11.24763 16.56933 27.44342
0.4046375 103.2206 2.46876 0.8110673 -1.553234 -0.4170613 3.392384 -18.66352 7.901195 -0 34.52913 -0 -5.953903 -12.98692 -4.369194 -6.338005 12.84011 -24.2935 -0 6.11718 -0 -0.3486269 -22.42925 22.79363 -3.608188 -2.278449 3.755286 2.101353 8.220291 -7.764251 1.095317 22.69978 8.044128 4.633412 -23.17701 8.703829 6.853851 -18.99546 11.27786 86.02953 36.22032 -21.79518 -0 0 16.0734 -8.793443 9.253424 4.904247 4.85229 -19.44013 -3.45203 -99.58059 40.28556 27.5711 0 0 -20.94237 -10.4566 16.35535 26.77773
0.558563 102.8259 4.165409 0.6174058 -0.9686025 -0.3433838 3.746867 -21.56842 7.250094 -0 32.01611 -0 -5.963678 -11.55645 -4.152554 -6.132601 13.40798 -23.77245 -0 5.674131 -0 -1.1066 -23.52689 21.64388 -3.440921 -1.716201 3.585833 2.07541 7.839686 -7.675162 1.222703 22.50724 8.106832 4.741697 -23.38678 8.824234 6.616331 -18.5656 11.11796 86.23655 36.20095 -21.87187 -0 0 15.57876 -8.667926 9.271632 4.812599 5.24683 -19.61987 -3.358785 -98.49276 40.21204 26.25943 0 0 -22.28995 -9.769094 16.21062 26.21335
0.6735004 102.2873 6.227868 0.3728753 -0.2859067 -0.1301488 4.113271 -24.61579 6.489355 -0 29.17565 -0 -6.036791 -9.930644 -3.935796 -5.871894 14.06194 -23.042 -0 5.432261 -0 -2.05712 -24.53679 20.20724 -3.217299 -1.153445 3.348551 2.087696 7.435453 -7.636058 1.32254 22.29415 8.169013 4.823942 -23.65242 8.926868 6.338359 -18.06671 10.95628 86.52533 36.12339 -22.01269 -0 0 14.92615 -8.636249 9.311059 4.799238 5.635774 -19.83338 -3.253288 -97.2229 39.94401 24.74218 0 0 -23.61827 -8.945587 16.03637 25.47959
0.7462193 101.6313 8.707215 0.06427769 0.4682281 0.2228524 4.515163 -27.55394 5.726608 -0 26.27678 -0 -6.165525 -8.215367 -3.734816 -5.555135 14.73637 -22.1791 -0 5.587227 -0 -3.182754 -25.30334 18.57911 -2.920458 -0.6363711 3.057549 2.137629 7.035217 -7.646603 1.388379 22.062 8.236343 4.885693 -23.97368 9.013161 6.07529 -17.52606 10.81185 86.84747 36.03742 -22.19349 -0 0 14.18219 -8.687062 9.404466 4.855503 5.979636 -20.03635 -3.134135 -95.96691 39.48746 23.2421 0 0 -24.72204 -8.068563 15.8508 24.66497
0.7747569 100.8967 11.66795 -0.3281465 1.283852 0.7094966 4.968624 -30.24931 4.977942 -0 23.36063 -0 -6.361617 -6.476352 -3.56591 -5.171058 15.42534 -21.14236 -0 6.326315 -0 -4.48691 -25.68789 16.73992 -2.531555 -0.1926064 2.702723 2.24015 6.647373 -7.722807 1.409259 21.81603 8.295923 4.902083 -24.35484 9.073418 5.823064 -16.93798 10.68989 87.21422 35.91432 -22.41809 -0 0 13.32 -8.832949 9.549456 5.002065 6.247577 -20.21617 -2.995248 -94.7276 38.77536 21.76501 0 0 -25.50725 -7.100819 15.6443 23.71511
0.7614311 100.1448 15.17317 -0.8194849 2.117446 1.308473 5.501572 -32.43205 4.308381 -0 20.60834 -0 -6.626863 -4.851476 -3.448734 -4.714024 16.06735 -19.93316 -0 7.934115 -0 -5.935197 -25.48533 14.74514 -2.030388 0.1361009 2.292491 2.403452 6.299227 -7.873355 1.372936 21.56658 8.337086 4.852988 -24.78699 9.095697 5.601441 -16.31794 10.60525 87.6119 35.75024 -22.67511 -0 0 12.35286 -9.083456 9.757181 5.253565 6.389609 -20.34437 -2.837763 -93.58718 37.77342 20.41502 0 0 -25.82639 -6.056556 15.409 22.63782
0.7151256 99.46547 19.27633 -1.412767 2.887075 1.974262 6.141554 -33.74625 3.795472 -0 18.26961 -0 -6.957027 -3.545757 -3.402226 -4.18556 16.54859 -18.56478 -0 10.78269 -0 -7.448755 -24.45001 12.70349 -1.401234 0.3113825 1.854772 2.628536 6.031441 -8.096745 1.268672 21.33269 8.345336 4.716592 -25.24055 9.063481 5.433 -15.69417 10.57677 88.01731 35.54665 -22.93933 -0 0 11.30863 -9.445581 10.03698 5.621031 6.344437 -20.3901 -2.669798 -92.62308 36.46967 19.30286 0 0 -25.55399 -4.95773 15.12747 21.45536
0.654225 98.9792 24.00138 -2.079838 3.458791 2.626307 6.885814 -33.77124 3.507125 -0 16.65323 -0 -7.334309 -2.823126 -3.431652 -3.604322 16.65908 -17.0813 -0 15.29209 -0 -8.903878 -22.34846 10.78985 -0.6457575 0.3191732 1.455423 2.896292 5.901612 -8.365748 1.093452 21.14397 8.308145 4.483625 -25.65142 8.95752 5.34637 -15.11728 10.62778 88.38646 35.3306 -23.16065 -0 0 10.25113 -9.926216 10.40193 6.104832 6.051349 -20.32729 -2.514057 -91.90026 34.91445 18.5455 0 0 -24.65433 -3.85846 14.77068 20.24301
0.6076968 98.82517 29.31536 -2.738284 3.654806 3.144756 7.650217 -32.13606 3.443277 -0 16.01049 -0 -7.721038 -2.941123 -3.507994 -3.018649 16.06472 -15.55574 -0 21.80295 -0 -10.16023 -19.07866 9.211375 0.1946751 0.2052648 1.21097 3.154819 5.975784 -8.61039 0.8621496 21.03971 8.220499 4.174163 -25.91281 8.761302 5.366036 -14.65881 10.78062 88.65224 35.16622 -23.25528 -0 0 9.284361 -10.53806 10.86713 6.689477 5.482014 -20.15226 -2.410088 -91.42572 33.24185 18.21479 0 0 -23.29032 -2.838708 14.2975 19.12936
0.6105352 99.12602 35.10005 -3.236475 3.302579 3.389329 8.23701 -28.70923 3.489495 -0 16.31921 -0 -8.049798 -4.006738 -3.548572 -2.518049 14.32565 -14.0732 -0 30.32815 -0 -11.10436 -14.84849 8.144215 1.008456 0.1009923 1.28301 3.315101 6.305955 -8.711063 0.6171534 21.06085 8.090083 3.853819 -25.88923 8.470328 5.495739 -14.39817 11.04632 88.72904 35.15142 -23.10575 -0 0 8.542405 -11.31197 11.44334 7.344821 4.68881 -19.90356 -2.405652 -91.12106 31.65496 18.28551 0 0 -21.88776 -1.97896 13.66652 18.25926
0.690156 99.92749 41.14616 -3.372542 2.329799 3.257643 8.385952 -23.76313 3.450774 -0 17.06324 -0 -8.216214 -5.791059 -3.429714 -2.225559 11.03323 -12.69362 -0 40.24962 -0 -11.65885 -10.3166 7.686691 1.591899 0.186566 1.829544 3.276079 6.896278 -8.529451 0.4258098 21.23371 7.93185 3.62444 -25.47013 8.098031 5.698657 -14.39407 11.411 88.53358 35.36758 -22.5861 -0 0 8.147871 -12.30714 12.11681 8.040016 3.840215 -19.66874 -2.527821 -90.84893 30.33141 18.61027 0 0 -21.00977 -1.30827 12.86661 17.68823
0.8483643 101.14 47.19966 -2.966055 0.8534765 2.763919 7.913057 -17.91317 3.184677 -0 17.28582 -0 -8.097202 -7.667493 -3.064516 -2.24311 6.077142 -11.41612 -0 50.17235 -0 -11.73115 -6.499846 7.888179 1.681119 0.5562691 2.91136 2.987847 7.681938 -7.992267 0.3538603 21.55037 7.747112 3.568088 -24.64746 7.669324 5.891154 -14.65752 11.82858 88.01727 35.77847 -21.61448 -0 0 8.156952 -13.59775 12.81886 8.765107 3.186542 -19.55584 -2.742023 -90.51291 29.27119 18.97007 0 0 -20.96774 -0.7681136 11.95305 17.26366
1.055379 102.5305 53.05695 -1.973932 -0.830683 2.061869 6.855844 -11.79472 2.74873 -0 16.12497 -0 -7.616451 -8.897324 -2.517128 -2.542967 -0.1352686 -10.16911 -0 58.14749 -0 -11.18766 -4.324954 8.825055 1.092379 1.082793 4.401381 2.51129 8.545971 -7.17708 0.4244556 21.95641 7.505556 3.668527 -23.54997 7.210564 5.96274 -15.16013 12.23069 87.17926 36.15218 -20.18371 -0 0 8.564785 -15.21536 13.4134 9.538209 2.932811 -19.62183 -2.938585 -90.16296 28.2351 19.2083 0 0 -21.44035 -0.2542327 11.03786 16.65046
1.269808 103.7861 58.64246 -0.6081429 -2.381581 1.35283 5.53065 -5.823288 2.413716 -0 13.51032 -0 -6.808745 -9.232244 -2.015813 -2.86055 -6.796473 -8.824291 -0 62.19384 -0 -9.975657 -4.055252 10.57312 -0.06242052 1.493867 5.974756 1.993685 9.354967 -6.293217 0.5977494 22.35285 7.167019 3.788774 -22.38192 6.759258 5.809728 -15.88899 12.55148 86.02874 36.1237 -18.29927 -0 0 9.430037 -17.07193 13.74061 10.38361 3.101094 -19.79261 -2.991898 -89.98501 26.94161 19.37052 0 0 -21.61564 0.2683403 10.20188 15.61223
1.474357 104.6078 64.00326 0.6464512 -3.554742 0.7457613 4.433433 -0.3223221 2.44168 -0 10.30406 -0 -5.808043 -9.299388 -1.758997 -2.710798 -13.13209 -7.236086 -0 60.90281 -0 -8.332745 -5.086729 12.98137 -1.290199 1.659278 7.230404 1.555095 9.974119 -5.541643 0.7895892 22.61782 6.743595 3.755628 -21.32356 6.379193 5.36631 -16.88869 12.75013 84.55348 35.41979 -15.90161 -0 0 10.97844 -18.95282 13.7095 11.30688 3.510149 -19.86261 -2.86893 -90.14006 25.40758 19.71342 0 0 -20.89835 0.6886206 9.422682 14.3482
